<?xml version="1.0" standalone="no"?>
<!DOCTYPE svg PUBLIC "-//W3C//DTD SVG 20010904//EN"
 "http://www.w3.org/TR/2001/REC-SVG-20010904/DTD/svg10.dtd">
<svg version="1.0" xmlns="http://www.w3.org/2000/svg"
 width="512.000000pt" height="512.000000pt" viewBox="0 0 512.000000 512.000000"
 preserveAspectRatio="xMidYMid meet">

<g transform="translate(0.000000,512.000000) scale(0.100000,-0.100000)"
fill="#000000" stroke="none">
<path d="M0 2560 l0 -2560 2560 0 2560 0 0 2560 0 2560 -2560 0 -2560 0 0
-2560z m2822 2219 c86 -18 157 -57 222 -123 118 -118 163 -240 316 -847 84
-333 171 -664 230 -870 l10 -36 178 -5 c262 -8 384 -42 485 -137 71 -67 99
-128 105 -229 4 -77 2 -87 -27 -147 -38 -77 -99 -129 -175 -149 -28 -8 -113
-22 -188 -31 -76 -10 -138 -19 -138 -21 0 -10 132 -339 180 -449 87 -200 228
-469 313 -598 76 -115 143 -190 253 -282 64 -54 94 -120 94 -208 0 -155 -92
-260 -256 -293 -99 -20 -387 -23 -499 -5 -339 54 -598 197 -768 426 -104 140
-236 447 -347 810 -24 77 -47 144 -51 148 -14 17 -304 -139 -476 -255 -237
-160 -627 -553 -755 -763 -88 -143 -132 -199 -203 -255 -111 -88 -227 -130
-360 -130 -102 1 -152 12 -242 56 -232 115 -342 385 -269 665 140 538 1143
2582 1587 3234 126 186 211 275 357 373 169 115 290 149 424 121z"/>
<path d="M2705 4490 c-40 -9 -66 -23 -152 -83 -138 -94 -252 -239 -445 -567
-490 -829 -1272 -2468 -1373 -2875 -59 -241 141 -419 352 -312 66 34 117 92
194 221 69 117 166 233 374 445 324 332 595 519 1030 713 l110 49 -85 -5
c-104 -6 -281 -51 -415 -105 -54 -22 -101 -39 -102 -37 -6 6 189 109 304 161
128 57 384 155 408 155 9 0 20 -21 31 -57 160 -569 277 -912 387 -1128 42 -84
65 -114 141 -190 76 -76 107 -99 186 -138 146 -72 261 -98 460 -104 91 -2 189
-1 218 4 l52 8 -54 42 c-201 157 -482 660 -723 1293 -74 194 -154 422 -150
426 9 9 369 76 490 91 147 19 163 28 106 62 -56 34 -151 46 -344 42 -99 -2
-211 -5 -249 -5 l-69 -1 -14 45 c-66 212 -180 633 -278 1020 -133 528 -183
693 -229 753 -53 69 -100 92 -161 77z m-55 -1165 c28 -121 85 -355 126 -519
55 -220 72 -301 63 -307 -7 -4 -39 -12 -73 -19 -146 -28 -467 -113 -644 -171
-50 -17 -96 -29 -101 -27 -9 3 60 162 289 668 170 373 279 604 284 599 2 -2
27 -103 56 -224z"/>
</g>
</svg>
